<svg id="Layer_1" xmlns="http://www.w3.org/2000/svg" xmlns:xlink="http://www.w3.org/1999/xlink" viewBox="0 0 190 31"><style>.st0,.st1{fill:#48a6c5}.st1,.st2{clip-path:url(#XMLID_43_)}.st2{fill:#b08b1c}</style><path id="XMLID_40_" class="st0" d="M9.3.4L4.9 6.3l-1.3 1V.4H.4v14.8h3.2V9.3l1-.7 4 6.6h4L7 6.2 11.5.4z"/><path id="XMLID_39_" class="st0" d="M24.3 2h-4v13.2h-3.1V2h-4V.4h11.1z"/><path id="XMLID_38_" class="st0" d="M36.6 1.7l-7.2 11.9h7.1v1.6H25.6v-1.3L32.7 2H26V.4h10.6z"/><path id="XMLID_37_" class="st0" d="M54.4 15.2h-9.2V.4h8.9V2h-5.8v4.9h5.1v1.6h-5.1v5.1h6.1z"/><path id="XMLID_36_" class="st0" d="M60.2 8L55.8.4h3.9l2.8 5.3h.1L65.7.4H68l-4.4 6.8 4.9 8h-3.9l-3.2-5.6h-.1L58 15.2h-2.4z"/><g id="XMLID_42_"><defs><path id="XMLID_1_" d="M0 0h190v31H0z"/></defs><clipPath id="XMLID_43_"><use xlink:href="#XMLID_1_" overflow="visible"/></clipPath><path id="XMLID_83_" class="st1" d="M73.6 1.9v7.3h1.1c1.4 0 2.2-.8 2.2-3.6s-.8-3.7-2.2-3.7h-1.1zM70.4.4H75c3.3 0 5.3 1.6 5.3 5 0 3.8-2.9 5.2-5.3 5.2h-1.5v4.6h-3.2V.4z"/><path id="XMLID_80_" class="st1" d="M85.8 1.9v6.5H87c1.6 0 2.2-.8 2.2-3.2 0-2.4-.6-3.3-2.3-3.3h-1.1zM92.5 5c0 2-1.2 3.4-2.6 4.2l3.4 6h-3.6L87 9.8h-1.2v5.4h-3.2V.4h4.6c3.3 0 5.3 1.7 5.3 4.6"/><path id="XMLID_31_" class="st1" d="M105.1 15.2h-9.3V.4h8.9V2H99v4.9h5.1v1.6H99v5.1h6.1z"/><path id="XMLID_30_" class="st1" d="M115.5 2.8s-1.5-1-3.1-1c-1.1 0-1.9.7-1.9 1.9 0 3.2 6 2.5 6 7.4 0 2.9-2.4 4.5-5.2 4.5-3.4 0-4.5-1.8-4.5-1.8l.9-1.3s1.2 1.4 3.4 1.4c1.5 0 2.3-.9 2.3-2.1 0-2.9-5.9-2.4-5.9-7.1 0-2.7 2-4.4 4.8-4.4 2.1 0 3.7 1.1 3.7 1.1l-.5 1.4z"/><path id="XMLID_29_" class="st1" d="M126.7 2.8s-1.5-1-3.1-1c-1.1 0-1.9.7-1.9 1.9 0 3.2 6 2.5 6 7.4 0 2.9-2.4 4.5-5.2 4.5-3.4 0-4.5-1.8-4.5-1.8l.9-1.3s1.2 1.4 3.4 1.4c1.5 0 2.3-.9 2.3-2.1 0-2.9-5.9-2.4-5.9-7.1 0-2.7 2-4.4 4.8-4.4 2.1 0 3.7 1.1 3.7 1.1l-.5 1.4z"/><path id="XMLID_28_" class="st2" d="M5 27.7c0-.8-.1-1.6 0-2.2-.2.6-.4 1.3-.6 2l-1 2.6h-.7l-.9-2.5c-.3-.7-.5-1.4-.7-2.1 0 .7 0 1.4-.1 2.3l-.2 2.4H0l.5-5.6h1l.9 2.6c.3.6.5 1.2.6 1.8.2-.6.3-1.2.6-1.9l.9-2.6h1l.5 5.6h-.8L5 27.7z"/><path id="XMLID_27_" class="st2" d="M10.7 24.5v3.8c0 1 .5 1.4 1.1 1.4.7 0 1.1-.4 1.1-1.4v-3.8h.9v3.7c0 1.5-.9 2-2 2-1.2 0-2-.6-2-2v-3.8h.9z"/><path id="XMLID_26_" class="st2" d="M17.7 24.5h.9v5.1h2.2v.5h-3.1z"/><path id="XMLID_25_" class="st2" d="M24.8 25.1h-1.5v-.6h3.8v.6h-1.4v5h-.9z"/><path id="XMLID_24_" class="st2" d="M30.5 24.5h.9v5.6h-.9z"/><path id="XMLID_23_" class="st2" d="M40.2 27.7c-.1-.7-.1-1.6-.1-2.2-.2.6-.4 1.3-.6 2l-1 2.6h-.6l-.9-2.5c-.3-.7-.5-1.4-.7-2.1 0 .7 0 1.4-.1 2.3l-.2 2.3h-.8l.5-5.6h1l.9 2.6c.3.7.5 1.3.6 1.9.2-.6.3-1.2.6-1.9l.9-2.6h1l.5 5.6h-.9l-.1-2.4z"/><path id="XMLID_68_" class="st2" d="M45.5 27.3c0 1.2.3 2.3 1.3 2.3s1.3-1.2 1.3-2.3c0-1.1-.3-2.3-1.3-2.3-.9 0-1.3 1.2-1.3 2.3m3.6 0c0 2.1-1 2.9-2.3 2.9-1.3 0-2.2-1-2.2-2.9s1-2.9 2.4-2.9c1.3 0 2.1 1.1 2.1 2.9"/><path id="XMLID_65_" class="st2" d="M53.6 29.6h.3c1 0 2-.5 2-2.4 0-1.4-.6-2.2-1.9-2.2h-.4v4.6zm-.9-5c.3-.1.8-.1 1.2-.1.8 0 1.4.2 1.9.4.6.4 1.1 1.1 1.1 2.3 0 1.3-.5 2-1 2.4-.5.4-1.3.6-2.2.6-.4 0-.8 0-1-.1v-5.5z"/><path id="XMLID_62_" class="st2" d="M63.1 27.9l-.4-1.4c-.1-.4-.2-.9-.3-1.3-.1.4-.2.9-.3 1.3l-.4 1.4h1.4zm-1.7.5l-.5 1.7H60l1.8-5.6h1l1.8 5.6h-.9l-.5-1.7h-1.8z"/><path id="XMLID_16_" class="st2" d="M68.1 24.5h.9v5.1h2.2v.5h-3.1z"/><path id="XMLID_15_" class="st2" d="M80.3 30c-.3.1-.7.2-1.2.2-1.6 0-2.7-.9-2.7-2.8 0-2.2 1.6-2.9 2.8-2.9.5 0 .8.1 1 .1l-.2.5c-.2-.1-.4-.1-.8-.1-.9 0-1.9.6-1.9 2.3 0 1.7.9 2.3 1.9 2.3.3 0 .6-.1.8-.1l.3.5z"/><path id="XMLID_57_" class="st2" d="M84.3 27.3c0 1.2.3 2.3 1.3 2.3s1.3-1.2 1.3-2.3c0-1.1-.3-2.3-1.3-2.3s-1.3 1.2-1.3 2.3m3.6 0c0 2.1-1 2.9-2.3 2.9-1.3 0-2.2-1-2.2-2.9s1-2.9 2.4-2.9c1.3 0 2.1 1.1 2.1 2.9"/><path id="XMLID_12_" class="st2" d="M96.3 27.7c-.1-.7-.1-1.6-.1-2.2-.2.6-.4 1.3-.6 2l-1 2.6H94l-1-2.6c-.3-.7-.5-1.4-.7-2.1 0 .7 0 1.4-.1 2.3l-.2 2.4h-.8l.5-5.6h1l.9 2.6c.3.7.5 1.3.6 1.9.2-.6.3-1.2.6-1.9l.9-2.6h1l.5 5.6h-.9v-2.4z"/><path id="XMLID_53_" class="st2" d="M102 27.3h.4c.9 0 1.5-.4 1.5-1.2 0-.6-.3-1.1-1.4-1.1h-.5v2.3zm-.9-2.7c.4-.1.8-.1 1.3-.1.7 0 1.4.1 1.8.4.4.3.6.7.6 1.2s-.2.9-.5 1.2c-.4.4-1.2.6-1.9.6h-.4v2.3h-.9v-5.6z"/><path id="XMLID_50_" class="st2" d="M110.9 27.9l-.4-1.4c-.1-.4-.2-.9-.3-1.3-.1.4-.2.9-.3 1.3l-.4 1.4h1.4zm-1.7.5l-.5 1.7h-.9l1.8-5.6h1l1.8 5.6h-.9l-.5-1.7h-1.8z"/><path id="XMLID_7_" class="st2" d="M115.9 30.1v-5.6h.9l1.5 2.6 1 2c-.1-.9-.1-1.6-.1-2.6v-2h.8v5.6h-.9l-1.5-2.7c-.3-.6-.7-1.2-1-1.9.1.8.1 1.5.1 2.7v2h-.8z"/><path id="XMLID_6_" class="st2" d="M124.6 30.1v-2.4l-1.8-3.3h1l.7 1.4c.2.4.4.8.6 1.3.2-.4.4-.9.6-1.3l.7-1.4h1l-1.8 3.2V30h-1z"/><path id="XMLID_5_" class="st1" d="M160.9 8.7S159.6 0 153.2 0c-6.1 0-19.1.1-19.1.1s1.3 8.7 7.7 8.7c6.1 0 19.1-.1 19.1-.1"/><path id="XMLID_4_" class="st1" d="M181.3 11.2h-41.6s1.3 8.7 7.7 8.7h35.2c4.1 0 6.8 4.2 6.8 4.2 0-12.9-8.1-12.9-8.1-12.9"/><path id="XMLID_3_" class="st2" d="M136.4 28.4c1.2 1.5 2.8 2.6 5.2 2.6 6.1 0 48.4-.1 48.4-.1s-.2-1.1-.7-2.6h-52.9z"/><path id="XMLID_2_" class="st2" d="M188 25.7c-1.2-1.9-3-3.5-5.8-3.5-6.1 0-48.4.1-48.4.1s.2 1.6 1 3.4H188z"/></g></svg>